<svg id="レイヤー_1" data-name="レイヤー 1" xmlns="http://www.w3.org/2000/svg" viewBox="0 0 287.88 58.74"><title>midori_logo</title><path d="M119.52,95.24l0,.73-.12.73.21.72,0,.73,0,.74-.06.75.24.71.32.67.16.76.76.33.42.59.64.33.64.38.71.19.73.06.72.19.74-.21.72.23.74-.09.55.17.06.55.11.72-.72.1-.69-.29-.71.28-.7-.26-.72.22-.73-.29-.75.12-.74-.27-.75-.07-.75.12-.76.26-.73-.43-.76.22-.75-.05-.74-.1L116,105l-.75-.16-.74.1-.73,0-.74,0-.73,0h-1.47l-.72.12-.75-.24-.71.35-.75-.35-.72.22-.72.11-.76,0-.77-.09-.77-.06-.74.4-.76,0-.76-.27-.35-.18-.54-.36.29-.61.6-.29.71.16.71.06.69-.36.73.25h.71l.64-.48.71,0,.72-.12.51-.5.7-.35.29-.68.26-.68V99.46l-.06-.71.21-.69-.08-.7.39-.7-.46-.71.35-.71-.25-.72V93.8l.09-.72-.13-.72.08-.72.25-.71,0-.72-.4-.72.37-.71,0-.72-.4-.72.21-.72.15-.71-.32-.72.32-.72v-.72l0-.72.08-.73v-.72l-.27-.72.29-.72-.44-.72.26-.72.15-.72-.13-.72-.25-.72.14-.72-.09-.72.13-.73,0-.72.19-.72-.43-.72,0-.72.29-.72-.07-.73.06-.72-.31-.72.27-.72-.14-.72.24-.72-.38-.72.28-.72-.07-.73.16-.72-.12-.72.1-.72-.33-.73v-.72l0-.73.36-.72,0-.73-.15-.73-.08-.72.28-.73v-.73l-.29-.73.07-.8-.39.7v.78l-.39.62-.25.68-.32.66-.18.69-.35.64-.27.66-.28.66-.26.67-.26.67-.16.71-.3.66-.34.63-.13.73-.23.69-.33.64-.54.57-.29.66-.15.72-.47.59-.19.7,0,.8-.65.51,0,.76-.29.66-.31.65-.16.72-.55.55.18.85-.44.6-.2.7-.58.55,0,.76-.09.74-.37.64-.58.55-.1.74-.24.68-.15.72-.3.66-.17.71-.27.67-.68.51-.2.7-.24.69,0,.79-.63.53-.19.7-.06.76-.29.67-.29.67-.17.71-.35.64-.57.55,0,.79-.38.63-.24.68-.24.68-.34.65-.32.66-.33.65-.31.65-.22.7-.06.76-.53.57-.22.7-.32.66-.09.75-.1.74-.63.54-.35.64,0,.78-.35.65-.27.69-.78.53-.83-.56-.14-.72-.3-.65-.54-.55-.3-.65v-.77l-.34-.63-.32-.64-.15-.71-.3-.64-.36-.63-.36-.62-.4-.6-.07-.75-.47-.58-.06-.75-.25-.68-.63-.51.07-.81L82,92l-.27-.67-.18-.7-.18-.7-.18-.7-.31-.65-.16-.71L80,87.44l.13-.84-.7-.48,0-.79-.32-.64-.46-.58-.27-.67-.22-.69L78,82l-.21-.7-.3-.65-.67-.5-.15-.72-.12-.73-.29-.66-.52-.55-.34-.64-.22-.69-.28-.66-.28-.66,0-.78-.33-.64-.48-.58-.22-.69-.43-.59,0-.77-.43-.6-.41-.61L72,69l.11-.83-.38-.62-.44-.59-.1-.74-.21-.69-.29-.66-.51-.57-.37-.62-.08-.75-.46-.59-.32-.65L68.66,61l-.37-.63-.11-.74-.13-.73-.69-.49.14-.85-.71-.48v-.8l-.33-.65L66.13,55v.67l.22.71-.22.72L66,57.8l.08.71,0,.71-.1.71,0,.71,0,.72v.71l.29.71.06.71-.23.72-.23.71.28.72.11.72-.17.71-.2.72,0,.71.29.72,0,.71-.37.71.28.72,0,.71,0,.72-.39.72.31.72.1.71-.44.72,0,.71.43.72v.72l-.12.71-.33.72.49.72-.28.71-.11.72v.71l.08.71-.11.72,0,.72.29.72-.1.71.08.72-.13.72,0,.72,0,.72-.12.72.32.72-.39.72.27.72-.11.72-.15.72.31.73-.15.72.26.73-.14.74.16.72,0,.73.21.7.26.67,0,.78.33.65.58.5.14.81.66.38.52.51.61.41.63.42.78,0,.67.3.73.06.71.19.72.21h.74l.74-.06.73-.12.48.37.25.49-.07.66-.66,0-.76.13h-.76l-.75-.12-.76-.21-.68-.13h-.69l-.7.26-.68-.34-.7.28-.68-.29-.7.25-.69-.28-.7.37-.68-.39-.69.15-.76,0-.77-.07-.76.07-.75.34-.76-.2-.75.24-.76,0-.75.09-.82-.3-.76.44-.81-.16-.78.23-.79-.27L55,105,55,104.5l0-.5.5-.1.72-.11.72-.07h.72l.69-.28.71-.08.64-.35.65-.25.82,0,.63-.39.56-.48.4-.64.23-.7.48-.56.37-.64,0-.75.09-.72,0-.72.21-.7-.14-.72.32-.71L64,94.33l.27-.71v-.71l-.1-.71L64,91.49l.26-.71-.19-.71.22-.71.1-.71L64,87.94l.32-.72.11-.71-.31-.71,0-.71L64,84.37l0-.71.41-.72,0-.71L64,81.52V80.8l0-.71,0-.71.23-.71V77.24l.08-.72,0-.71-.1-.72-.1-.71.31-.72L64.32,73l-.26-.72.4-.71-.33-.72.25-.72-.22-.71L64,68.65l.17-.71-.09-.71.14-.71-.15-.72.13-.71.29-.72-.38-.71.18-.72.09-.72,0-.72-.27-.71.26-.72.16-.72-.14-.72-.17-.72.08-.72.09-.72-.07-.72L64.05,55l.38-.74-.37-.74-.1-.72.2-.8-.45-.62-.46-.63-.67-.39-.83.2-.68-.3-.75,0-.72-.24-.72-.26-.75.06-.74,0h-.75l-.52-.23-.19-.53.06-.64.65-.25.73.12.73.13.72.12.73-.12.73,0,.73.07.74-.22.74-.1.69.06.68.44.71-.42.69.47.71-.3h.69l.69.35.71-.28.69.28.7-.06.71-.12h.7l.71-.14.7.29.72,0,.68.14.64.22.34.6.44.56.25.67.3.65.17.71.37.62.16.72.64.5.19.7.15.72.5.57v.77l.25.67.57.54.18.7.33.64.22.68.38.62.2.69.44.59.09.74.09.74.26.67.56.55.14.72.43.6.3.65.12.73.39.62.07.75.35.63.55.54.26.67.29.67.18.7.18.71.25.68.46.58.24.68.16.71.26.68.5.57.14.72L87,78l.06.75.35.63.49.57-.07.81.41.61.24.68.35.64.4.61.43.6,0,.81.32.65.51.57v.79l.39.62.52.57.09.75.35.63.43.61,0,.77.31.68.08-.76.42-.61.22-.68.36-.63.19-.7.17-.71.24-.67L94.9,86l-.12-.82.38-.63.16-.7.68-.5-.16-.84.28-.66.69-.5V80.6l.26-.67.33-.64.18-.71.28-.67.23-.68.26-.67.18-.7.35-.64.3-.66.24-.67.49-.58v-.78l.43-.6.42-.61,0-.76.42-.62.27-.66v-.79l.37-.62.47-.59,0-.77.39-.62.25-.68.26-.66.09-.74.67-.51-.1-.81.48-.59.4-.62-.16-.84.29-.66.71-.5.18-.71.33-.65,0-.77.32-.65.22-.7.13-.73.33-.64.22-.7.47-.6.37-.64.07-.76.26-.67.54-.53.42-.55.41-.54.44-.6.71-.17.71-.13.72,0,.72.27.69-.18.7.05.7-.09.7-.22h1.39l.7.26.69.06h.7l.7-.34.71.15.7.11.7-.13.71.2.79-.08.79-.17.79,0,.79.21.78-.05.69-.12.16.68-.47.38-.38.14-.71.13-.7,0-.72,0-.69.37-.72-.22-.72-.06L122,50l-.63.4-.71.11-.38.62-.54.43-.17.68-.15.68.11.7-.18.71-.15.7.14.72v.72l-.15.71.13.72.19.71-.06.71-.28.72.11.71.2.71-.13.72,0,.71.11.72,0,.71-.26.72.22.72-.31.71.18.72-.22.72,0,.72-.06.71.14.72.27.72-.15.71.08.72-.31.72.1.72.2.72-.09.72-.18.71.22.72.17.72-.32.72-.08.72.32.72-.25.72,0,.71-.14.72.21.72,0,.71.26.72-.39.72.35.72-.06.72,0,.72.13.72,0,.72-.14.72,0,.72-.3.72.13.73,0,.72-.1.72.26.72-.16.73.35.7Z" transform="translate(-54.98 -47.52)"/><path d="M147.63,98.73l.38.71-.14.71.31.68-.28.76.35.64.59.38.43.63.77-.11.68.07.65.47.73-.28.68.4.7,0,.71,0,.72-.23.44.39v.47l0,.51-.49,0-.76.4-.73-.46-.77.24-.7-.3-.73.24-.72,0-.72,0-.71-.11-.71-.22-.73.35-.72-.21-.73.19-.71-.31-.73.18L144,105l-.72,0-.71-.17-.72-.07-.72,0-.71.3-.72-.26-.73,0-.71.33-.73-.15-.72.11-.72-.08-.71.34-.73-.09-.73-.16-.74.08-.75.18-.75-.19-.62,0-.22-.63.29-.57.55-.15.72,0,.69-.32.7-.07.71,0,.71,0,.73.12.71-.14.64-.33.47-.52.46-.45.3-.61.21-.68.07-.7.07-.71-.31-.71.33-.71-.08-.72V95.86l0-.71-.28-.72,0-.72,0-.71.43-.72-.32-.72.06-.71v-.71l.12-.72.16-.71-.43-.72.18-.71-.23-.72.11-.72.12-.71-.09-.72.28-.72,0-.72,0-.72-.22-.72.11-.72.06-.71-.12-.72-.15-.72.26-.71-.15-.72.05-.72-.17-.72.33-.72v-.72l0-.72-.06-.72-.34-.72.23-.72-.19-.72.07-.72v-.72l.35-.72-.1-.72-.22-.71.26-.72,0-.72-.08-.72,0-.72-.22-.72.37-.72-.11-.72-.19-.73,0-.72.2-.72-.17-.73.23-.72.1-.72-.49-.73.13-.72-.13-.73.49-.73-.12-.71-.19-.7-.19-.69-.12-.67-.06-.7-.36-.61-.66-.27-.66-.27-.72.1-.65-.5-.74.31-.68-.24-.72.22h-.71l-.7-.11-.62-.28V49.1l.05-.59.58,0,.76-.34.74.26.76-.2.72.07.7.38.71.06h.72l.72-.12.72,0,.73-.17.73-.07.71.41h.72l.73-.34.72.26.71-.07.72.08h.72l.71-.22.72.13.71-.21.74.43.71-.34.72,0,.72-.06.73.17.72-.21.72.06.71-.2.75-.15.76.22.75.14.45.13.3.47-.26.52-.5,0-.7.2-.7.24-.73-.29-.7.12-.71,0-.7.12-.65.36-.67.18-.58.34-.4.52-.45.58-.19.7,0,.71.19.71.15.71-.21.72v.71l.3.72v.72l-.45.72.16.72.12.71-.1.72.18.71-.24.72-.07.71-.06.72.46.71-.32.72.27.71-.23.72.25.71-.3.72-.08.72.12.72-.11.72v.72l.22.71.13.72-.18.72.18.72-.08.71-.24.72.34.72-.14.72-.19.72.3.72,0,.72-.36.72L148,80l.09.71,0,.72-.36.72.25.73,0,.72-.08.72-.3.72.42.71-.27.72.31.71v.72l-.14.73-.15.72,0,.71.27.73-.29.72-.13.72.2.72-.24.73.11.72.07.72-.08.72.22.73.09.73-.31.7Z" transform="translate(-54.98 -47.52)"/><path d="M163.39,48.7l.73-.28.71-.1.7.32.73-.16.71.34.72-.29.71.07.73-.05.72.34.69-.39.68.17.7.15.69-.33.69.06H174l.71.28.69-.06.7-.36.72.09.72.09.71-.21.71-.14.71.12.72.19.72-.08.7-.28.72.21.7-.08.71.28.72-.36.73,0,.72.19.74-.2.71.34.73-.06.73,0,.72.12.72.09.75-.14.66.52.71.1.79-.32.66.42.7.21.73.06.68.24h.75l.74,0,.69.26.61.46.73.12.69.22.65.32.62.38.7.21.58.47.78,0,.57.47.49.59.72.2.51.54.71.23.66.34.56.46.56.46.36.69.62.39.47.55.55.48.46.56.53.5.45.57.33.66.41.59.21.72.42.58.36.63.19.7.39.62.13.72.38.62.08.73.66.55-.19.8.54.61-.07.76.37.67-.12.75.08.71.34.69-.11.74,0,.73-.17.72.23.72.1.72-.07.72-.29.71,0,.71.32.75-.22.7-.35.68-.15.7v.73l.14.75-.23.69-.15.71-.09.72-.58.59-.17.69v.76l-.2.7L214,87l-.52.56-.18.7,0,.78-.41.61-.58.5-.25.68-.19.73-.42.58-.55.5-.36.62-.53.5-.38.61-.34.65-.76.29-.41.59-.26.75-.74.26-.34.69-.49.54-.86.09-.39.65-.57.44-.54.47-.74.19-.39.71-.73.19-.74.14-.48.62-.74.13-.61.37-.68.22-.71.17-.62.35-.66.28-.6.44-.76,0-.7.14-.63.43-.66.3-.75-.07-.67.31h-2.18l-.69.19-.7.16-.73,0-.7.25-.72-.24-.71.22-.73.16-.69-.3-.7.17-.69.16-.7-.11-.68-.33-.7.24-.69.07-.67-.4-.72.38-.66-.49-.72.17-.69-.16-.7-.13-.7.23h-.7l-.71,0-.7-.18-.7.09-.71-.05-.71.29-.71,0-.71.14-.72-.35-.71,0-.71.13-.71.11-.72-.25-.69.48-.73-.39-.71.06-.68.44-.72-.23-.83.13-.84.19-.83-.06-.46-.4-.08-.42v-.52l.54-.38.72.17.71-.18.72,0,.72,0,.69-.27.73,0h1.48l.68-.31.45-.62.41-.53.35-.6,0-.72.37-.69.06-.71-.33-.72.29-.72-.33-.72.32-.73-.1-.72.06-.72.13-.72-.38-.73.1-.72-.1-.72.22-.72-.15-.72.3-.72,0-.72v-.72l-.17-.72-.21-.72.09-.72v-.73l.05-.72-.21-.73.08-.72.3-.73.05-.72-.26-.72-.1-.73.27-.72-.2-.72.3-.73-.44-.72.33-.73-.11-.72.18-.73v-.72l-.13-.73-.19-.72.29-.73-.18-.73v-.72l.21-.73-.2-.72.23-.72-.35-.72.29-.73-.32-.72,0-.73.39-.73-.09-.72-.24-.73.06-.73-.12-.72.37-.73-.06-.73-.21-.73.22-.73v-.73l0-.73.06-.73-.19-.73.19-.74,0-.71V53.64l-.33-.68-.09-.71-.45-.58-.46-.51-.57-.35-.6-.3-.6-.45-.73.1-.69-.14-.68-.32-.73.37-.69-.2-.71.08-.71.09-.55-.47-.51-.47.5-.48.56-.47.7.06.69.09.7,0,.66.33ZM177.54,95l.32.73.16.72-.25.75.26.71-.21.77.44.65.15.71.32.65.08.81.76.32.43.6.54.53h.79l.66.28.71.16.67.4.74,0,.75-.29.72.14.73.12.72-.2.71-.16.73.07.75.09.7-.22.63-.43h.76l.65-.32.78,0,.5-.64.6-.39.71-.22.47-.59.75-.19.5-.54.52-.5.56-.47.5-.51.31-.7.78-.29.44-.59,0-.85.64-.44.43-.59.28-.67.4-.61.17-.72.15-.73.33-.63.5-.58.14-.72.2-.69.29-.67.31-.66.11-.72.34-.66-.12-.77.29-.67.4-.66-.07-.75.29-.69-.11-.75,0-.73.1-.71.06-.72.33-.7-.09-.73.09-.73-.06-.72,0-.73-.09-.72,0-.72.09-.73,0-.72.16-.74-.13-.72-.1-.72.06-.73-.2-.71,0-.74-.26-.69V68.3l-.62-.6.22-.8-.55-.59v-.76l-.46-.61v-.75l-.26-.68-.52-.56-.15-.72-.26-.67-.16-.74-.56-.51-.46-.55-.36-.63L200,58.4l-.45-.57-.76-.31-.36-.64-.31-.7-.49-.54-.62-.39-.73-.25-.52-.51-.59-.4-.64-.31-.41-.72-.65-.32-.76-.11-.66-.27-.61-.39-.57-.51-.72-.13-.78.07-.66-.29-.63-.44-.73,0-.75.08-.7-.16-.68-.27h-.73l-.71-.18-.72,0-.73.12-.72-.38-.77.1-.77.34-.78-.33-.77.28h-.61l-.41.54.27.72v.72l.07.73-.26.72.39.73-.21.72-.24.72.31.72-.22.72.07.73-.08.72-.12.72.1.72,0,.72.22.72-.26.72-.07.72.26.72.13.72-.23.73.17.72-.13.73-.13.72-.09.73.11.72.08.72-.11.72.21.73-.27.72.2.72.15.73-.3.73.18.72.17.73-.09.72-.31.73.28.72.11.73-.36.72.43.73-.44.72.2.73-.13.72-.12.72.24.72v.73l0,.73-.18.72.09.73,0,.72.28.73-.06.73.13.73-.36.73,0,.73.11.73.09.72-.28.73.45.74-.42.7Z" transform="translate(-54.98 -47.52)"/><path d="M268.58,74.83l.11.71.2.72.05.72-.37.7,0,.72-.23.69.38.76-.28.69-.17.71.1.74-.08.72-.18.7-.12.71-.17.7-.29.67-.45.62-.09.72-.12.71-.32.65-.46.59.11.82-.62.51.06.81-.62.5-.2.69-.14.74-.63.47-.33.63-.2.72-.42.59-.47.54-.51.51-.29.69-.72.33-.54.47-.19.8-.64.37-.33.69-.73.26-.63.36-.57.42-.33.74-.6.39-.52.52-.62.36-.78.09-.47.62-.66.27-.67.27-.63.34-.76,0-.66.26-.59.46-.69.18-.71.11-.67.27-.75-.16-.68.22-.7.1-.69.33h-.71l-.72.11-.72-.21-.72-.06-.74.18-.68-.45-.72-.09-.78.28-.71-.15-.66-.37-.7-.21h-.75l-.61-.46-.63-.38-.79,0-.54-.57-.84.08-.66-.3-.58-.46-.68-.27-.63-.38-.38-.73-.57-.44-.56-.44-.73-.25-.44-.59-.44-.59L227,99l-.53-.49-.34-.67-.74-.31-.23-.75-.46-.55-.55-.49-.4-.61-.46-.56-.42-.6-.21-.71-.15-.73-.4-.61-.35-.63-.37-.62-.21-.7-.42-.61-.35-.65.1-.79-.1-.72-.44-.63-.19-.69,0-.74-.43-.65-.16-.71.24-.77-.17-.71-.31-.7-.08-.72.14-.74-.07-.72-.1-.73.45-.72-.47-.74.12-.72.35-.71-.27-.75,0-.73.09-.72.15-.72.29-.7.19-.7-.08-.76.11-.72.09-.73.37-.66.12-.72.1-.73.43-.63.4-.62.22-.69-.05-.8.64-.52v-.8l.23-.7.54-.54.2-.71.3-.67.34-.65.76-.37.36-.63.23-.72.37-.63L226,57l.4-.61L227,56l.29-.72.56-.47.68-.34.51-.51.44-.59.51-.5.59-.43.53-.49.65-.35.58-.43.53-.52.61-.4.73-.17.63-.36.56-.5.84.11.54-.61.75,0,.63-.42.74-.06.73,0,.64-.5.79.3.71-.08.7-.22.72.06.71-.23.72.31.72,0,.71.14.74-.2.72.09.69.23.68.28.77-.16.69.23.64.38.74.07.67.27.73.12.54.57.64.33.8,0,.6.4.65.33.41.7.81.09.58.44.45.6.75.23.36.68.56.46.46.56.61.4.56.48.48.54.33.66.61.45.29.68.36.63.33.64.28.67.7.43.22.7.27.67.12.74.3.65.48.58.19.7.26.67.22.68.45.62.25.68.15.71-.05.76.3.67-.11.76.37.67-.11.75.22.7.15.72-.12.73,0,.72Zm-10.09,2-.12-.72-.22-.71-.1-.72.3-.72-.11-.72.13-.73-.5-.69.14-.73v-.72l-.28-.7-.12-.71-.06-.71-.13-.71-.1-.71v-.73l.13-.75-.25-.69L257,64l-.07-.72.05-.75-.58-.6.15-.79-.58-.58.09-.78-.37-.64-.47-.58v-.78l-.35-.63-.51-.54-.32-.64-.31-.64-.31-.65-.58-.46-.19-.77-.41-.6-.78-.23L251,52l-.71-.26-.37-.69-.5-.54-.6-.42H248l-.63-.32-.7-.08-.68-.18-.65-.43-.74.26-.71-.09-.69,0-.69.1-.73-.17-.7.14-.61.43-.66.22-.67.22-.54.45-.75.16-.48.53-.5.49-.31.67-.51.48-.39.61-.6.44-.44.57-.19.73-.7.43-.34.64,0,.82-.31.64-.48.57-.29.66-.06.74-.47.6-.36.65.1.78-.49.61.23.81-.13.7-.29.68,0,.72-.12.71-.52.64-.14.71-.11.72.17.75-.25.7-.21.71.12.74,0,.72-.25.71.31.75-.33.71v.72l.15.73,0,.72.08.71.05.71-.15.72-.2.73.1.72.07.72.13.71,0,.73.22.71.18.7-.28.75,0,.74.34.69.11.71,0,.73.4.67.17.7-.22.78.22.69.39.65.19.69v.75l.24.68.29.66-.18.83.7.51.17.7v.79l.6.51.36.62.34.63.31.64.25.7.36.63.62.41.51.51.54.45.4.62.6.41.62.35.45.59.51.54.66.31.79,0,.56.59.77-.17h.71l.69.3.71-.15.69-.08.68-.09.76.35.68-.19.62-.4.62-.31.68-.18.56-.42.71-.2.37-.65.57-.41.66-.33.46-.53.36-.65.4-.61.45-.57.33-.65.44-.57.31-.66.18-.71.27-.67.47-.58.23-.68,0-.75.65-.54-.14-.81.41-.63v-.75l.32-.66.32-.67-.2-.78.56-.62.16-.71,0-.75.21-.7-.11-.74.39-.69V84l.16-.71-.2-.75.05-.72.18-.72.18-.72-.28-.74.08-.72.2-.72-.15-.73Z" transform="translate(-54.98 -47.52)"/><path d="M291.84,77h.93l.7.1.72.07.7.15.67.3.67.25L297,78l.63.36.67.2.74.09.53.52.8,0,.41.67.68.28.55.45.37.64.51.48.66.37.15.78.38.59.68.41.07.77.65.47.17.7.07.75.65.51-.18.81.39.62.21.68.31.65.17.69.06.73.31.66.08.73,0,.74.4.66-.1.77.17.7.42.65-.22.81.55.61.15.71.32.65.21.69-.11.83.47.59.46.57.37.65.64.39.67.3h.74l.73.13.71-.14.76-.47.71.63-.48.61-.6.41-.6.43h-.8l-.54.6-.74.1-.74,0-.71.14-.67.31-.69.3-.76-.23-.69.43-.73.07-.73-.16-.7-.25-.75.14-.65-.43-.79.14-.66-.34-.71-.24-.41-.7-.5-.49-.53-.47-.63-.4-.21-.73-.37-.6-.33-.62-.59-.52-.19-.7-.1-.73-.56-.57.18-.81-.32-.66-.4-.64-.07-.73.18-.77-.24-.68-.08-.72-.1-.72-.53-.63.2-.77-.12-.72-.35-.69.14-.76-.28-.7-.29-.69.2-.78-.37-.67v-.76l-.2-.71-.49-.62,0-.79-.43-.62-.5-.57,0-.82-.42-.6-.37-.67-.71-.34-.41-.66-.63-.43-.72-.21-.74-.11-.63-.46-.74-.11-.75.1-.73,0-.72-.24-.74-.06-.72.3-.72,0-.72-.26h-.85l-.11.85.3.71-.21.72.12.71v.72l0,.71.13.72-.25.71.21.72-.16.72-.12.71.28.71.07.71-.05.72-.08.72.07.71-.17.72.22.71-.29.72.22.72,0,.72v.72l-.24.72-.06.71,0,.72.13.72,0,.72-.11.73.07.72-.12.71.48.69-.3.75.3.66.42.56.33.71.7.24.75,0,.63.4.7.09.69.22.74-.28.69.27.72-.2.69.4h.71l.45.14.25.44-.3.39-.39.51-.68-.36-.68,0-.69,0-.72-.2-.75.38-.71-.44-.74.24-.74.11-.72-.28-.75.29-.73-.27-.73.16-.73,0-.73-.35-.74.35-.73-.38-.74-.07h-.74l-.72.19-.72.24-.72-.43-.73.25-.72,0-.72-.1-.72.22-.71.11-.73-.42-.7.43-.72-.15-.71,0-.73-.18-.7.48-.73-.2-.82.3-.85-.46-.7.18-.14-.7.25-.59.59-.21.75.15.74,0,.73-.42.75.18.73-.14.72-.24.71-.17.82.23.73-.3.38-.71.36-.64.28-.71.12-.74-.19-.75.06-.75-.08-.71-.21-.72.11-.71.18-.72-.23-.71.24-.72-.12-.71-.22-.71.25-.71-.21-.72.27-.71-.3-.71v-.71l.46-.71-.22-.72,0-.71.15-.71,0-.72-.19-.72.06-.71-.11-.72.06-.72-.22-.71,0-.72.38-.71-.37-.71.09-.72.07-.71V78l-.07-.72.24-.72.05-.71-.38-.72.19-.72-.11-.71-.05-.72.25-.72.16-.72-.17-.71v-.72l-.05-.71V68.7l-.16-.71v-.72l.13-.72.16-.71-.36-.72.38-.72-.25-.72.15-.72v-.72l.09-.72-.35-.72.39-.72-.17-.72-.21-.72.24-.72.2-.73-.25-.72-.09-.73.06-.73,0-.73.12-.74-.35-.68.11-.79-.3-.72-.58-.55-.69-.33-.77,0-.72-.06-.66-.46-.75.16-.72-.11-.71-.22-.73.05-.76.27-.62-.33-.11-.65.18-.57.57-.11.6.13.61-.1.63-.25.69.11h.7l.68.44.72-.39.7.21.71-.18.7.17h.71l.7.31L274,49l.72-.35.7.15.71,0,.7-.19h.75l.76.25.75.21.75-.13.76-.15.74-.14.75-.12.76.35.76,0,.75,0,.73-.42.75,0,.75.25.73-.08.73-.24.74.07.74.12.73-.36.73.2.74-.11.7.41.75-.23.71.21h.74l.69.28.7.21.77-.12.63.46.8-.14.64.4h.78l.7.26.5.67.8,0,.6.43.56.49.46.61.67.3.44.59.63.39.62.43.3.7.43.58.39.61.18.72.26.67.63.54.17.72-.05.76.11.71.13.71.11.72.14.73,0,.73-.1.71,0,.73-.42.65-.1.71-.24.68-.36.62-.33.63-.27.66-.45.56-.2.73-.45.57-.63.4-.29.73-.59.43-.56.46-.7.26-.59.41-.52.53-.8,0-.47.64-.75.08-.52.6h-.77l-.71.16-.56.57-.68.24-.77-.1-.73.06-.62.49-.77-.19-.68.27-.88.08Zm-6.47-.23.73-.28.72,0,.71-.14.72-.09.74,0,.73-.11.64-.38.73-.15.64-.37.51-.56.72-.23.33-.74.76-.25.35-.66.44-.57.59-.48.33-.66.09-.76.61-.53.28-.68-.12-.8.49-.62-.2-.78.27-.69.33-.68-.34-.77.5-.69-.14-.73v-.73l-.14-.7,0-.71v-.72l-.27-.67L297,59.1l-.07-.72-.46-.59V57l-.32-.65-.55-.5v-.83l-.72-.38-.39-.58-.53-.47-.47-.52-.25-.78-.66-.33-.64-.33-.53-.5-.67-.27-.64-.32-.71-.14-.64-.37-.71-.17-.74.17-.71,0-.76-.07-.74.16-.68.28-.82.06-.24.77-.42.59-.35.7-.15.74.12.77.16.76-.33.73.38.72.05.72-.14.72-.2.72.23.72-.29.73.36.72-.08.72.1.72-.36.73-.07.71,0,.72.23.72-.25.72v1.45l.31.72-.09.72-.16.73.35.72-.4.73.13.72.23.73-.09.72-.35.73.1.72-.06.73,0,.73.36.62.57.27H284l.71-.24Z" transform="translate(-54.98 -47.52)"/><path d="M334.88,98.73l.07.71.11.7-.14.71.13.7.28.64.27.71.68.31.7.16.69.15h.71l.7.13.69.2.71-.09h.72l.7.1.46.18.49.48-.51.47-.43.18-.76.33-.74-.28-.76.13-.7-.41h-.72l-.73.37-.71-.29-.71-.18h-.72l-.72,0-.73.16-.72-.29-.72.09-.73-.1-.72-.06-.72.18-.71-.18-.72.37-.72-.21h-.72l-.7.35-.73-.06-.72,0-.73-.35-.71.37-.73-.19-.71.26-.74-.3-.71.13-.74.29h-.76l-.75-.11-.62-.12.05-.62-.07-.65.65,0,.7-.24.71,0,.72.22.69-.35.7-.06.68-.17.73,0,.66-.24.56-.4.27-.59.54-.53v-.71l-.13-.71,0-.7.41-.71-.21-.71.19-.72-.12-.72-.12-.72.21-.71-.19-.72.05-.72L326,93l-.36-.72.12-.72-.07-.71-.11-.71-.05-.72.35-.71L325.8,88l.14-.71-.14-.72.15-.72-.11-.71.1-.72-.05-.72L326,83l-.32-.72.12-.72-.24-.72.14-.71.23-.72.05-.72-.38-.71,0-.72.21-.72v-.72l0-.72.05-.72-.29-.72.33-.72.09-.72-.28-.72.22-.72-.21-.72-.05-.72-.06-.72.3-.72.1-.71,0-.72-.17-.72.16-.72-.23-.72.16-.72-.3-.72.42-.72-.08-.73-.24-.72-.07-.72.12-.73,0-.72-.15-.72v-.73l.35-.72-.22-.73.18-.73-.08-.71-.15-.7,0-.7.05-.74-.2-.71-.54-.53-.68-.26-.62-.37-.73.05-.68-.25-.7-.14-.72.17-.7-.08h-.71l-.7-.21-.64.06.09-.65,0-.52.5-.22.76-.16.75,0,.75.08.71.2.72.07.7.23.73-.28h.72l.72.07.72-.14.72.38.72-.06.72-.08.73-.1.72.37.71-.22.72.06.71-.17.72-.08.73.38.7-.37.74.32.71-.16.73.14.71-.36.72-.13.72.08.72-.1.73.1.75.08.75,0,.75,0,.68-.11.09.67-.35.46-.43.06-.7.28-.72-.21-.71.12-.7.14-.72-.11-.68.32-.69.17h-.74l-.43.66-.67.34v1.44l-.28.67.12.71-.24.71-.05.72.26.71.15.72-.38.72.11.72.22.72-.27.71V62l.12.71.22.72v.71l-.21.72.08.71.08.72-.34.71.07.72.2.72.12.72-.07.72-.17.72-.24.71.06.72.33.72-.32.72v.71l.38.72-.37.72.24.72.11.72-.38.72.18.72.22.72-.21.72.18.71-.39.72.21.72.23.73-.4.72.17.72,0,.72,0,.71-.2.72.34.71,0,.72-.22.73.25.72-.24.71.33.73-.38.72.29.72,0,.72v1.45l-.13.72-.16.72.08.73-.06.73.37.72Z" transform="translate(-54.98 -47.52)"/></svg>